<?xml version="1.0" encoding="UTF-8"?>
<svg id="Camada_2" data-name="Camada 2" xmlns="http://www.w3.org/2000/svg" viewBox="0 0 100.84 92.67">
  <defs>
    <style>
      .cls-1 {
        fill: #40e0d0;
      }
    </style>
  </defs>
  <g id="Camada_1-2" data-name="Camada 1">
    <path class="cls-1" d="M100.25,66.55c1.34-5.08.35-10.5-2.78-15.25-.5-.76-1.06-1.49-1.65-2.18,1.45-2.28,2.54-4.77,3.24-7.43,3.69-14.04-4.72-28.47-18.76-32.16-4.19-1.1-8.49-1.16-12.63-.19-2.68-4.13-6.84-7.31-11.96-8.66-10.93-2.88-22.17,3.68-25.04,14.61-.14.55-.26,1.1-.36,1.66-13.21-1.56-25.94,6.82-29.42,20.05-3.81,14.48,4.87,29.35,19.34,33.16,5.84,1.54,11.85,1.11,17.31-1.17,2.55,4.21,6.56,7.45,11.41,8.73,5.93,1.56,11.96.2,16.55-3.19,2.52,2.75,5.77,4.72,9.46,5.69.37.1.76.19,1.15.26,0,.15-.02.32-.03.52-.18,2.42-.12,4.94,1.59,6.95,1.5,1.77,3.7,2.4,5.65,2.96.03,0,.05.02.08.02l6.15,1.62c2,.53,4.04-.67,4.57-2.67,0-.01,0-.03,0-.04,0-.01,0-.02.01-.04l6.12-23.26ZM83.51,83.11c-.02-.27-.03-.74.03-1.55.11-1.47.17-3.18-.55-4.78-.62-1.38-2.01-3.12-5.13-3.59-.34-.06-.67-.13-.99-.22-2.5-.66-4.67-2.06-6.28-4.01.95-1.57,1.7-3.29,2.19-5.15.53-2-.67-4.04-2.67-4.57s-4.04.67-4.57,2.67c-1.69,6.41-8.27,10.25-14.68,8.56-5.86-1.54-9.83-8.2-8.66-14.53,1.49-7.14-.33-11.26-2.13-13.47-2.63-3.22-5.84-3.82-8.19-4.26l-.08-.02c-2.03-.38-3.99.96-4.37,2.99-.38,2.03.96,3.98,2.99,4.37l.09.02c1.93.36,2.9.58,3.77,1.64.51.62,1.58,2.58.58,7.27,0,.02,0,.03,0,.05,0,.02,0,.03-.01.05-.46,2.5-.43,5.01.02,7.41-4,1.72-8.43,2.06-12.72.93-10.48-2.76-16.77-13.53-14.01-24.02,2.61-9.9,12.36-16.05,22.26-14.38.07.35.15.7.23,1.04.71,2.77,1.96,5.32,3.73,7.58.52.67,1.23,1.11,1.99,1.31,1.09.29,2.3.08,3.26-.67,1.63-1.27,1.92-3.62.64-5.25-1.11-1.42-1.93-3.09-2.37-4.82-.54-2.13-.53-4.38.03-6.52,1.83-6.94,8.96-11.1,15.9-9.28,6.94,1.83,11.1,8.96,9.28,15.9-.68,2.57-2.09,4.83-4.09,6.55-1.57,1.35-1.75,3.71-.4,5.28,1.35,1.57,3.71,1.75,5.28.4,3.16-2.71,5.39-6.28,6.45-10.32.83-3.16.87-6.34.25-9.33,2.58-.42,5.24-.3,7.83.38,10.05,2.64,16.07,12.97,13.43,23.02-.42,1.59-1.03,3.09-1.83,4.5-1.59-.91-3.29-1.62-5.04-2.09-3.13-.82-6.44-.86-9.57-.11-2.01.48-3.25,2.5-2.77,4.51.48,2.01,2.5,3.25,4.51,2.77,1.96-.47,3.95-.45,5.92.07,6.83,1.8,11.57,9.05,9.95,15.21l-5.19,19.72-2.49-.65c-.42-.12-1.33-.38-1.83-.59Z"/>
  </g>
</svg>